<?xml version="1.0" encoding="UTF-8" standalone="no"?> <svg width="64" height="64" viewBox="0 0 64 64" fill="none" xmlns="http://www.w3.org/2000/svg">
<path d="M55.54 20.4199H11.69C11.4248 20.4199 11.1705 20.5253 10.9829 20.7128C10.7954 20.9004 10.69 21.1547 10.69 21.4199V21.6099C10.6827 21.6797 10.6827 21.7501 10.69 21.8199C10.6858 21.8732 10.6858 21.9267 10.69 21.9799C10.7585 22.0866 10.8319 22.1901 10.91 22.2899C10.9537 22.3272 11.0006 22.3607 11.05 22.3899C11.1091 22.4335 11.1728 22.4703 11.24 22.4999C11.922 22.8212 12.4917 23.3401 12.875 23.9891C13.2584 24.6382 13.4379 25.3876 13.39 26.1399C13.4379 26.8923 13.2584 27.6416 12.875 28.2907C12.4917 28.9398 11.922 29.4586 11.24 29.7799V29.7799C11.1728 29.8095 11.1091 29.8464 11.05 29.8899C11.0006 29.9192 10.9537 29.9526 10.91 29.9899C10.8319 30.0898 10.7585 30.1932 10.69 30.2999C10.6858 30.3532 10.6858 30.4067 10.69 30.4599C10.6819 30.533 10.6819 30.6068 10.69 30.6799V30.9999C10.69 31.2651 10.7954 31.5195 10.9829 31.707C11.1705 31.8946 11.4248 31.9999 11.69 31.9999H55.54C56.3186 32.0323 57.0957 31.907 57.8247 31.6313C58.5536 31.3557 59.2192 30.9356 59.7816 30.3961C60.344 29.8567 60.7914 29.2091 61.0971 28.4922C61.4028 27.7754 61.5604 27.0042 61.5604 26.2249C61.5604 25.4456 61.4028 24.6744 61.0971 23.9576C60.7914 23.2408 60.344 22.5932 59.7816 22.0537C59.2192 21.5143 58.5536 21.0941 57.8247 20.8185C57.0957 20.5429 56.3186 20.4175 55.54 20.4499V20.4199Z" fill="#0478ED"/>
<path d="M47.53 32H3.69003C3.42481 32 3.17046 32.1054 2.98292 32.2929C2.79539 32.4804 2.69003 32.7348 2.69003 33V33.19C2.68266 33.2598 2.68266 33.3302 2.69003 33.4C2.68575 33.4533 2.68575 33.5068 2.69003 33.56C2.72142 33.6168 2.75826 33.6704 2.80003 33.72C2.83195 33.7733 2.86878 33.8235 2.91003 33.87C2.95374 33.9073 3.00058 33.9408 3.05003 33.97C3.10913 34.0136 3.17285 34.0504 3.24003 34.08V34.08C3.922 34.4013 4.49165 34.9202 4.87504 35.5692C5.25843 36.2183 5.43786 36.9677 5.39003 37.72C5.43786 38.4724 5.25843 39.2217 4.87504 39.8708C4.49165 40.5199 3.922 41.0387 3.24003 41.36V41.36C3.17285 41.3896 3.10913 41.4265 3.05003 41.47C3.00058 41.4993 2.95374 41.5327 2.91003 41.57C2.86878 41.6165 2.83195 41.6667 2.80003 41.72C2.75826 41.7697 2.72142 41.8232 2.69003 41.88C2.68575 41.9333 2.68575 41.9868 2.69003 42.04C2.68194 42.1131 2.68194 42.1869 2.69003 42.26V42.45C2.69003 42.7152 2.79539 42.9696 2.98292 43.1571C3.17046 43.3447 3.42481 43.45 3.69003 43.45H47.53C48.3086 43.4824 49.0857 43.3571 49.8147 43.0814C50.5436 42.8058 51.2092 42.3857 51.7716 41.8462C52.334 41.3068 52.7814 40.6592 53.0871 39.9423C53.3928 39.2255 53.5504 38.4543 53.5504 37.675C53.5504 36.8957 53.3928 36.1245 53.0871 35.4077C52.7814 34.6909 52.334 34.0433 51.7716 33.5038C51.2092 32.9644 50.5436 32.5442 49.8147 32.2686C49.0857 31.993 48.3086 31.8676 47.53 31.9V32Z" fill="#56AAFF"/>
<path d="M48.16 8.86995H4.30997C4.04475 8.86995 3.7904 8.97531 3.60286 9.16284C3.41533 9.35038 3.30997 9.60473 3.30997 9.86995V10.06C3.3026 10.1298 3.3026 10.2001 3.30997 10.27C3.30515 10.3265 3.30515 10.3834 3.30997 10.44C3.33819 10.4963 3.37167 10.5499 3.40997 10.6C3.44507 10.6537 3.48525 10.7039 3.52997 10.75C3.57406 10.7838 3.62088 10.8139 3.66997 10.84C3.76917 10.9132 3.88105 10.9674 3.99997 11V11C4.68194 11.3212 5.25159 11.8401 5.63498 12.4892C6.01837 13.1383 6.1978 13.8876 6.14997 14.64C6.19986 15.3939 6.02142 16.1455 5.63791 16.7965C5.25439 17.4476 4.68361 17.968 3.99997 18.29V18.29C3.93279 18.3195 3.86908 18.3564 3.80997 18.4C3.76052 18.4292 3.71368 18.4627 3.66997 18.5C3.62872 18.5464 3.5919 18.5966 3.55997 18.65C3.5182 18.6996 3.48136 18.7532 3.44997 18.81C3.4457 18.8632 3.4457 18.9167 3.44997 18.97C3.44188 19.0431 3.44188 19.1168 3.44997 19.19C3.44997 19.19 3.44997 19.19 3.44997 19.19V19.38C3.44997 19.6452 3.55533 19.8995 3.74286 20.0871C3.9304 20.2746 4.18475 20.38 4.44997 20.38H48.16C48.9386 20.4124 49.7157 20.287 50.4446 20.0114C51.1735 19.7358 51.8392 19.3156 52.4015 18.7761C52.9639 18.2367 53.4114 17.5891 53.7171 16.8723C54.0228 16.1555 54.1803 15.3842 54.1803 14.605C54.1803 13.8257 54.0228 13.0544 53.7171 12.3376C53.4114 11.6208 52.9639 10.9732 52.4015 10.4338C51.8392 9.89431 51.1735 9.47414 50.4446 9.19853C49.7157 8.92292 48.9386 8.79754 48.16 8.82995V8.86995Z" fill="#56AAFF"/>
<path d="M54.91 43.5798H11.07C10.8048 43.5798 10.5504 43.6852 10.3629 43.8727C10.1753 44.0603 10.07 44.3146 10.07 44.5798V44.7698C10.0626 44.8396 10.0626 44.91 10.07 44.9798C10.0657 45.0331 10.0657 45.0866 10.07 45.1398C10.1384 45.2466 10.2118 45.35 10.29 45.4498C10.3337 45.4871 10.3805 45.5206 10.43 45.5498C10.4891 45.5934 10.5528 45.6303 10.62 45.6598C11.2729 46.0174 11.8176 46.5439 12.1971 47.1843C12.5765 47.8248 12.7768 48.5554 12.7768 49.2998C12.7768 50.0442 12.5765 50.7749 12.1971 51.4153C11.8176 52.0558 11.2729 52.5823 10.62 52.9398V52.9398C10.5528 52.9694 10.4891 53.0063 10.43 53.0498C10.3809 53.0759 10.3341 53.106 10.29 53.1398C10.2118 53.2396 10.1384 53.3431 10.07 53.4498C10.0652 53.5064 10.0652 53.5633 10.07 53.6198C10.0626 53.6896 10.0626 53.76 10.07 53.8298C10.07 53.8298 10.07 53.8298 10.07 53.8298V54.0198C10.07 54.2851 10.1753 54.5394 10.3629 54.727C10.5504 54.9145 10.8048 55.0198 11.07 55.0198H54.91C55.6886 55.0522 56.4657 54.9269 57.1946 54.6513C57.9235 54.3756 58.5892 53.9555 59.1515 53.416C59.7139 52.8766 60.1614 52.229 60.4671 51.5122C60.7728 50.7953 60.9303 50.0241 60.9303 49.2448C60.9303 48.4656 60.7728 47.6943 60.4671 46.9775C60.1614 46.2607 59.7139 45.6131 59.1515 45.0736C58.5892 44.5342 57.9235 44.114 57.1946 43.8384C56.4657 43.5628 55.6886 43.4374 54.91 43.4698V43.5798Z" fill="#0478ED"/>
</svg>
